<?xml version="1.0" encoding="utf-8"?>
<!-- Generator: Adobe Illustrator 16.0.4, SVG Export Plug-In . SVG Version: 6.00 Build 0)  -->
<!DOCTYPE svg PUBLIC "-//W3C//DTD SVG 1.1//EN" "http://www.w3.org/Graphics/SVG/1.1/DTD/svg11.dtd">
<svg version="1.1" id="Layer_1" xmlns="http://www.w3.org/2000/svg" xmlns:xlink="http://www.w3.org/1999/xlink" x="0px" y="0px"
	 width="274px" height="42.5px" viewBox="0 0 274 42.5" enable-background="new 0 0 274 42.5" xml:space="preserve">
<g>
	<polygon fill="none" stroke="#00B0CA" stroke-miterlimit="10" points="9.906,21.155 9.906,19.3 7.666,19.3 7.666,20.934 
		7.402,20.934 7.402,21.155 7.641,21.155 7.641,20.942 9.667,20.942 9.667,21.155 	"/>
	<polygon fill="none" stroke="#00B0CA" stroke-miterlimit="10" points="19.171,4.333 22.8,4.333 22.133,1.87 23.141,1 20.108,1 
		19.718,1 17.863,1 19.171,2.236 	"/>
	<path fill="none" stroke="#00B0CA" stroke-miterlimit="10" d="M27.432,10.883c-0.004,0-0.009,0.005-0.014,0.005H12.536h-0.353
		c0.042,0.046,0.073,0.104,0.073,0.175c0,0.145-0.116,0.257-0.258,0.257h-0.432H8.125l-0.458,5.616v1.849h7.134v0.043H18.9v-0.043
		h4.423v0.043h1.943v-0.043h2.167L27.432,10.883L27.432,10.883z"/>
	<rect x="8.156" y="21.673" fill="none" stroke="#00B0CA" stroke-miterlimit="10" width="0.993" height="1.47"/>
	<rect x="26.274" y="19.516" fill="none" stroke="#00B0CA" stroke-miterlimit="10" width="0.993" height="1.424"/>
	<rect x="30.05" y="19.3" fill="none" stroke="#00B0CA" stroke-miterlimit="10" width="0.238" height="1.855"/>
	<rect x="254.428" y="19.3" fill="none" stroke="#00B0CA" stroke-miterlimit="10" width="0.235" height="1.855"/>
	<rect x="28.539" y="19.516" fill="none" stroke="#00B0CA" stroke-miterlimit="10" width="0.992" height="1.424"/>
	<polygon fill="none" stroke="#00B0CA" stroke-miterlimit="10" points="22.94,4.85 19.171,4.85 19.171,7.302 18.186,7.481 
		18.186,7.568 27.667,7.568 27.743,6.747 27.743,4.85 23.213,4.85 23.213,5.544 23.133,5.559 	"/>
	<polygon fill="none" stroke="#00B0CA" stroke-miterlimit="10" points="29.564,16.259 28.389,16.259 28.389,18.784 30.168,18.784 	
		"/>
	<rect x="1.355" y="21.673" fill="none" stroke="#00B0CA" stroke-miterlimit="10" width="6.286" height="1.47"/>
	<path fill="none" stroke="#00B0CA" stroke-miterlimit="10" d="M270.332,29.363c-0.018-0.244-0.125-1.367-0.947-1.66
		c-0.275-0.603-0.801-1.232-1.781-1.398l0.201-0.574h-0.513h-37.099c0.125-0.931,0.128-1.793,0-2.588h38.082h0.425l0.508-1.47
		h-0.375h-14.71v-7.991h-1.208v6.817v0.444v0.729h-23.11c-0.132-0.32-0.289-0.626-0.474-0.916c-1.99-3.126-6.196-3.162-6.375-3.162
		h-24.374c-0.055-0.097-0.094-0.202-0.152-0.296c-0.801-1.257-1.957-2.008-3.067-2.464v-0.788h-0.591v0.569
		c-1.414-0.465-2.623-0.479-2.717-0.479H62.498v7.536h-6.091v-7.626H45.186v7.626H9.665v1.47h52.833v2.589H1.353v3.59l7.154,1.261
		h-1.12v10.498h6.497v-0.146h256.592L272,37.498L270.332,29.363z M227.865,25.73h-29.486c0.35-0.912,0.6-1.771,0.771-2.589h28.697
		C228.025,23.882,228.03,24.749,227.865,25.73z M222.957,19.899c0.029,0,2.793,0.053,4.195,1.773h-27.78
		c0.05-0.627,0.024-1.213-0.048-1.773H222.957z M195.611,17.595h-0.248v-0.171C195.447,17.479,195.53,17.533,195.611,17.595z
		 M192.051,16.441c0.021,0,1.411,0.023,2.721,0.649v0.504h-14.317v-1.153H192.051z M64.804,16.441h115.059v1.153h-31.484v-0.041
		H137.13h-2.346v0.041H80.4v4.078H64.804V16.441L64.804,16.441z M137.805,23.142L137.805,23.142l0.264,1.44h-0.002L137.805,23.142z
		 M133.015,21.673V19.9h1.769v1.773H133.015z M64.804,23.142H80.4v2.589H64.804V23.142z M131.806,25.73H82.705v-2.589h49.102
		L131.806,25.73L131.806,25.73z M82.705,21.673V19.9h49.102v1.773H82.705z M137.538,21.673l-0.321-1.773h42.646v1.773H137.538z
		 M180.454,21.673V19.9h14.317v1.773H180.454z M195.363,19.899h1.638c0.101,0.531,0.118,1.124,0.052,1.773h-1.689V19.899z
		 M195.365,23.142h1.416c-0.201,0.8-0.503,1.665-0.903,2.589h-0.513V23.142z M193.562,25.736h-60.106v-2.588h60.106V25.736
		L193.562,25.736z"/>
	<polygon fill="none" stroke="#00B0CA" stroke-miterlimit="10" points="271.145,17.614 257.348,17.614 257.262,17.462 
		255.62,17.524 255.62,19.284 255.621,19.284 255.621,21.442 256.189,21.442 256.189,21.655 257.432,21.655 257.432,21.442 
		258.456,21.442 258.456,21.655 259.693,21.655 259.693,21.442 260.723,21.442 260.723,21.655 261.957,21.655 261.957,21.442 
		262.984,21.442 262.984,21.655 264.225,21.655 264.225,21.442 265.249,21.442 265.249,21.655 266.489,21.655 266.489,21.442 
		267.516,21.442 267.516,21.655 268.753,21.655 268.753,21.442 269.816,21.442 270.234,20.245 270.256,19.284 270.564,19.284 	"/>
	<path fill="none" stroke="#00B0CA" stroke-miterlimit="10" d="M25.438,7.975h-0.569h-1.156h-0.568h-1.158h-0.569h-1.154h-0.571
		h-1.152H17.97h-5.176v2.898h5.176h0.571h1.152h0.571h1.154h0.569h1.158h0.568h1.156h0.569h1.726V7.975H25.438z"/>
	<path fill="none" stroke="#00B0CA" stroke-miterlimit="10" d="M12.212,7.568h0.325V6.533h-0.97v4.271h0.354
		c-0.043-0.046-0.074-0.104-0.074-0.175c0-0.144,0.117-0.256,0.257-0.256h0.433V8.084h-0.325c-0.144,0-0.259-0.114-0.259-0.257
		S12.069,7.568,12.212,7.568z"/>
	<polygon fill="none" stroke="#00B0CA" stroke-miterlimit="10" points="8.521,6.422 12.429,6.422 12.507,5.099 12.749,1.048 
		12.753,1.032 10.703,1.642 6.605,2.863 6.821,6.422 	"/>
</g>
</svg>
