<?xml version="1.0" encoding="utf-8"?>
<!-- Generator: Adobe Illustrator 16.0.4, SVG Export Plug-In . SVG Version: 6.00 Build 0)  -->
<!DOCTYPE svg PUBLIC "-//W3C//DTD SVG 1.1//EN" "http://www.w3.org/Graphics/SVG/1.1/DTD/svg11.dtd">
<svg version="1.1" id="Layer_1" xmlns="http://www.w3.org/2000/svg" xmlns:xlink="http://www.w3.org/1999/xlink" x="0px" y="0px"
	 width="244px" height="42.5px" viewBox="-440.316 -68.973 244 42.5" enable-background="new -440.316 -68.973 244 42.5"
	 xml:space="preserve">
<g>
	<polygon fill="none" stroke="#00B0CA" stroke-miterlimit="10" points="-430.318,-46.865 -430.318,-48.72 -432.559,-48.72 
		-432.559,-47.085 -432.822,-47.085 -432.822,-46.865 -432.583,-46.865 -432.583,-47.077 -430.558,-47.077 -430.558,-46.865 	"/>
	<polygon fill="none" stroke="#00B0CA" stroke-miterlimit="10" points="-421.054,-63.687 -417.425,-63.687 -418.091,-66.15 
		-417.084,-67.02 -420.116,-67.02 -420.506,-67.02 -422.361,-67.02 -421.054,-65.783 	"/>
	<path fill="none" stroke="#00B0CA" stroke-miterlimit="10" d="M-412.792-57.137c-0.004,0-0.009,0.005-0.014,0.005h-14.882h-0.353
		c0.042,0.046,0.073,0.104,0.073,0.175c0,0.145-0.116,0.257-0.258,0.257h-0.432h-3.441l-0.458,5.616v1.849h7.134v0.043h4.099v-0.043
		h4.423v0.043h1.943v-0.043h2.167V-57.137z"/>
	<rect x="-432.069" y="-46.347" fill="none" stroke="#00B0CA" stroke-miterlimit="10" width="0.993" height="1.47"/>
	<rect x="-413.951" y="-48.504" fill="none" stroke="#00B0CA" stroke-miterlimit="10" width="0.993" height="1.424"/>
	<rect x="-410.174" y="-48.72" fill="none" stroke="#00B0CA" stroke-miterlimit="10" width="0.238" height="1.855"/>
	<rect x="-214.797" y="-48.72" fill="none" stroke="#00B0CA" stroke-miterlimit="10" width="0.235" height="1.855"/>
	<rect x="-411.685" y="-48.504" fill="none" stroke="#00B0CA" stroke-miterlimit="10" width="0.992" height="1.424"/>
	<polygon fill="none" stroke="#00B0CA" stroke-miterlimit="10" points="-417.285,-63.17 -421.054,-63.17 -421.054,-60.718 
		-422.039,-60.538 -422.039,-60.451 -412.558,-60.451 -412.482,-61.273 -412.482,-63.17 -417.011,-63.17 -417.011,-62.476 
		-417.092,-62.461 	"/>
	<polygon fill="none" stroke="#00B0CA" stroke-miterlimit="10" points="-410.661,-51.761 -411.835,-51.761 -411.835,-49.236 
		-410.057,-49.236 	"/>
	<rect x="-438.87" y="-46.347" fill="none" stroke="#00B0CA" stroke-miterlimit="10" width="6.286" height="1.47"/>
	<path fill="none" stroke="#00B0CA" stroke-miterlimit="10" d="M-198.892-38.656c-0.018-0.243-0.125-1.367-0.947-1.66
		c-0.275-0.602-0.801-1.232-1.781-1.398l0.201-0.574h-0.513h-32.099c0.126-0.931,0.128-1.794,0.001-2.588h33.082h0.424l0.508-1.47
		h-0.375h-14.71v-7.991h-1.208v6.817v0.444v0.729h-18.11c-0.132-0.32-0.289-0.626-0.474-0.916c-1.99-3.126-6.196-3.162-6.375-3.162
		h-17.374c-0.054-0.097-0.094-0.202-0.153-0.296c-0.8-1.256-1.957-2.008-3.067-2.464v-0.788h-0.591v0.569
		c-1.414-0.464-2.623-0.479-2.717-0.479h-114.556v7.536h-6.091v-7.626h-11.221v7.626h-33.521v1.47h50.833v2.588h-59.145v3.591
		l7.154,1.26h-1.12v9.498h6.497v-0.146h227.593l1.523-4.435L-198.892-38.656z M-236.36-42.289h-22.486
		c0.35-0.911,0.599-1.771,0.771-2.588h21.698C-236.2-44.138-236.195-43.271-236.36-42.289z M-241.267-48.12
		c0.029,0,2.793,0.053,4.195,1.773h-20.78c0.05-0.627,0.024-1.213-0.048-1.773H-241.267z M-261.614-50.425h-0.248v-0.171
		C-261.778-50.541-261.694-50.487-261.614-50.425z M-265.173-51.578c0.021,0,1.411,0.023,2.721,0.649v0.504h-14.318v-1.153H-265.173
		z M-377.42-51.578h100.059v1.153h-23.484v-0.041h-11.249h-2.346v0.041h-54.384v4.078h-8.596V-51.578z M-311.419-44.877
		L-311.419-44.877l0.263,1.44h-0.002L-311.419-44.877z M-316.209-46.347v-1.773h1.769v1.773H-316.209z M-377.42-44.877h8.596v2.588
		h-8.596V-44.877z M-317.418-42.289h-49.102v-2.588h49.102V-42.289z M-366.52-46.347v-1.773h49.102v1.773H-366.52z M-311.687-46.347
		l-0.322-1.773h34.647v1.773H-311.687z M-276.771-46.347v-1.773h14.318v1.773H-276.771z M-261.861-48.12h1.638
		c0.101,0.532,0.118,1.124,0.052,1.773h-1.69V-48.12z M-261.86-44.877h1.416c-0.201,0.8-0.503,1.665-0.903,2.588h-0.513V-44.877z
		 M-263.663-42.282h-52.106v-2.588h52.106V-42.282z"/>
	<polygon fill="none" stroke="#00B0CA" stroke-miterlimit="10" points="-198.08,-50.406 -211.877,-50.406 -211.964,-50.557 
		-213.604,-50.495 -213.604,-48.736 -213.604,-48.736 -213.604,-46.577 -213.035,-46.577 -213.035,-46.365 -211.793,-46.365 
		-211.793,-46.577 -210.768,-46.577 -210.768,-46.365 -209.531,-46.365 -209.531,-46.577 -208.501,-46.577 -208.501,-46.365 
		-207.267,-46.365 -207.267,-46.577 -206.239,-46.577 -206.239,-46.365 -205,-46.365 -205,-46.577 -203.975,-46.577 
		-203.975,-46.365 -202.736,-46.365 -202.736,-46.577 -201.708,-46.577 -201.708,-46.365 -200.471,-46.365 -200.471,-46.577 
		-199.408,-46.577 -198.99,-47.775 -198.968,-48.736 -198.659,-48.736 	"/>
	<path fill="none" stroke="#00B0CA" stroke-miterlimit="10" d="M-414.786-60.045h-0.569h-1.156h-0.568h-1.158h-0.569h-1.154h-0.571
		h-1.152h-0.571h-5.176v2.898h5.176h0.571h1.152h0.571h1.154h0.569h1.158h0.568h1.156h0.569h1.726v-2.898H-414.786z"/>
	<path fill="none" stroke="#00B0CA" stroke-miterlimit="10" d="M-428.012-60.451h0.325v-1.035h-0.97v4.271h0.354
		c-0.043-0.046-0.074-0.104-0.074-0.175c0-0.144,0.117-0.256,0.257-0.256h0.433v-2.289h-0.325c-0.144,0-0.259-0.114-0.259-0.257
		C-428.271-60.336-428.156-60.451-428.012-60.451z"/>
	<polygon fill="none" stroke="#00B0CA" stroke-miterlimit="10" points="-431.703,-61.598 -427.796,-61.598 -427.718,-62.921 
		-427.475,-66.972 -427.472,-66.988 -429.522,-66.378 -433.62,-65.156 -433.403,-61.598 	"/>
</g>
</svg>
