<?xml version="1.0" encoding="utf-8"?>
<!-- Generator: Adobe Illustrator 16.0.4, SVG Export Plug-In . SVG Version: 6.00 Build 0)  -->
<!DOCTYPE svg PUBLIC "-//W3C//DTD SVG 1.1//EN" "http://www.w3.org/Graphics/SVG/1.1/DTD/svg11.dtd">
<svg version="1.1" id="Layer_1" xmlns="http://www.w3.org/2000/svg" xmlns:xlink="http://www.w3.org/1999/xlink" x="0px" y="0px"
	 width="199.5px" height="39.5px" viewBox="-440.316 -65.973 199.5 39.5" enable-background="new -440.316 -65.973 199.5 39.5"
	 xml:space="preserve">
<polygon fill="none" stroke="#00B0CA" stroke-miterlimit="10" points="-430.221,-43.91 -430.221,-45.766 -432.461,-45.766 
	-432.461,-44.131 -432.725,-44.131 -432.725,-43.91 -432.486,-43.91 -432.486,-44.123 -430.46,-44.123 -430.46,-43.91 "/>
<polygon fill="none" stroke="#00B0CA" stroke-miterlimit="10" points="-420.956,-60.733 -417.327,-60.733 -417.994,-63.196 
	-416.986,-64.066 -420.019,-64.066 -420.409,-64.066 -422.264,-64.066 -420.956,-62.829 "/>
<path fill="none" stroke="#00B0CA" stroke-miterlimit="10" d="M-412.695-54.183c-0.004,0-0.009,0.005-0.014,0.005h-14.882h-0.353
	c0.042,0.046,0.073,0.104,0.073,0.175c0,0.145-0.116,0.257-0.258,0.257h-0.432h-3.441l-0.458,5.616v1.849h7.134v0.043h4.099v-0.043
	h4.423v0.043h1.943v-0.043h2.167V-54.183z"/>
<rect x="-431.971" y="-43.393" fill="none" stroke="#00B0CA" stroke-miterlimit="10" width="0.993" height="1.47"/>
<rect x="-413.853" y="-45.55" fill="none" stroke="#00B0CA" stroke-miterlimit="10" width="0.993" height="1.424"/>
<rect x="-410.077" y="-45.766" fill="none" stroke="#00B0CA" stroke-miterlimit="10" width="0.238" height="1.855"/>
<rect x="-259.366" y="-45.766" fill="none" stroke="#00B0CA" stroke-miterlimit="10" width="0.235" height="1.855"/>
<rect x="-411.587" y="-45.55" fill="none" stroke="#00B0CA" stroke-miterlimit="10" width="0.992" height="1.424"/>
<polygon fill="none" stroke="#00B0CA" stroke-miterlimit="10" points="-417.187,-60.216 -420.956,-60.216 -420.956,-57.764 
	-421.941,-57.584 -421.941,-57.497 -412.46,-57.497 -412.782,-58.319 -412.384,-58.319 -412.384,-60.216 -416.914,-60.216 
	-416.914,-59.522 -416.994,-59.507 "/>
<polygon fill="none" stroke="#00B0CA" stroke-miterlimit="10" points="-410.563,-48.807 -411.738,-48.807 -411.738,-46.281 
	-409.959,-46.281 "/>
<rect x="-438.772" y="-43.393" fill="none" stroke="#00B0CA" stroke-miterlimit="10" width="6.286" height="1.47"/>
<path fill="none" stroke="#00B0CA" stroke-miterlimit="10" d="M-243.461-35.702c-0.018-0.243-0.125-1.367-0.947-1.66
	c-0.275-0.602-0.801-1.232-1.781-1.398l0.201-0.574h-0.513H-266.6c0.126-0.931,0.128-1.794,0.001-2.588h21.082h0.424l0.508-1.47
	h-0.375h-14.71v-7.991h-1.208v6.817v0.444v0.729h-6.11c-0.132-0.32-0.289-0.626-0.474-0.916c-1.99-3.126-6.196-3.162-6.375-3.162
	h-10.374c-0.054-0.097-0.094-0.202-0.153-0.296c-0.8-1.256-1.957-2.008-3.067-2.464v-0.788h-0.591v0.569
	c-1.414-0.464-2.623-0.479-2.717-0.479h-91.889v7.536h-6.091v-7.626h-11.221v7.626h-30.521v1.47h47.833v2.588h-56.145v3.591
	l7.154,1.26h-1.12v6.498h6.497v-0.146h181.926l1.523-1.435L-243.461-35.702z M-268.929-39.335h-15.486
	c0.35-0.912,0.599-1.771,0.771-2.588h14.698C-268.769-41.184-268.764-40.317-268.929-39.335z M-273.836-45.166
	c0.029,0,2.793,0.053,4.195,1.773h-13.78c0.05-0.627,0.024-1.213-0.048-1.773H-273.836z M-287.183-47.471h-0.248v-0.171
	C-287.347-47.587-287.263-47.532-287.183-47.471z M-290.742-48.624c0.021,0,1.411,0.023,2.721,0.649v0.504h-14.318v-1.153H-290.742z
	 M-380.323-48.624h77.393v1.153h-23.484v-0.041h-11.249h-2.346v0.041h-31.718v4.078h-8.596V-48.624z M-336.988-41.923
	L-336.988-41.923l0.263,1.44h-0.002L-336.988-41.923z M-341.778-43.393v-1.773h1.769v1.773H-341.778z M-380.323-41.923h8.596v2.588
	h-8.596V-41.923z M-342.987-39.335h-26.435v-2.588h26.435V-39.335z M-369.422-43.393v-1.773h26.435v1.773H-369.422z
	 M-337.256-43.393l-0.322-1.773h34.647v1.773H-337.256z M-302.34-43.393v-1.773h14.318v1.773H-302.34z M-287.43-45.166h1.638
	c0.101,0.532,0.118,1.124,0.052,1.773h-1.69V-45.166z M-287.429-41.923h1.416c-0.201,0.8-0.503,1.665-0.903,2.588h-0.513V-41.923z
	 M-289.231-39.329h-52.106v-2.588h52.106V-39.329z"/>
<polygon fill="none" stroke="#00B0CA" stroke-miterlimit="10" points="-242.649,-47.451 -256.446,-47.451 -256.533,-47.603 
	-258.173,-47.541 -258.173,-45.781 -258.172,-45.781 -258.172,-43.623 -257.604,-43.623 -257.604,-43.41 -256.362,-43.41 
	-256.362,-43.623 -255.337,-43.623 -255.337,-43.41 -254.1,-43.41 -254.1,-43.623 -253.07,-43.623 -253.07,-43.41 -251.836,-43.41 
	-251.836,-43.623 -250.808,-43.623 -250.808,-43.41 -249.569,-43.41 -249.569,-43.623 -248.544,-43.623 -248.544,-43.41 
	-247.305,-43.41 -247.305,-43.623 -246.277,-43.623 -246.277,-43.41 -245.04,-43.41 -245.04,-43.623 -243.977,-43.623 
	-243.559,-44.821 -243.537,-45.781 -243.228,-45.781 "/>
<path fill="none" stroke="#00B0CA" stroke-miterlimit="10" d="M-414.688-57.091h-0.569h-1.156h-0.568h-1.158h-0.569h-1.154h-0.571
	h-1.152h-0.571h-5.176v2.898h5.176h0.571h1.152h0.571h1.154h0.569h1.158h0.568h1.156h0.569h1.726v-2.898H-414.688z"/>
<path fill="none" stroke="#00B0CA" stroke-miterlimit="10" d="M-427.915-57.497h0.325v-1.035h-0.97v4.271h0.354
	c-0.043-0.046-0.074-0.104-0.074-0.175c0-0.144,0.117-0.256,0.257-0.256h0.433v-2.289h-0.325c-0.144,0-0.259-0.114-0.259-0.257
	C-428.174-57.382-428.058-57.497-427.915-57.497z"/>
<polygon fill="none" stroke="#00B0CA" stroke-miterlimit="10" points="-431.605,-58.644 -427.698,-58.644 -427.62,-59.967 
	-427.377,-64.018 -427.374,-64.033 -429.424,-63.424 -433.522,-62.202 -433.306,-58.644 "/>
</svg>
