<?xml version="1.0" encoding="utf-8"?>
<!-- Generator: Adobe Illustrator 16.0.4, SVG Export Plug-In . SVG Version: 6.00 Build 0)  -->
<!DOCTYPE svg PUBLIC "-//W3C//DTD SVG 1.1//EN" "http://www.w3.org/Graphics/SVG/1.1/DTD/svg11.dtd">
<svg version="1.1" id="Layer_1" xmlns="http://www.w3.org/2000/svg" xmlns:xlink="http://www.w3.org/1999/xlink" x="0px" y="0px"
	 width="303.167px" height="47.5px" viewBox="0 0 303.167 47.5" enable-background="new 0 0 303.167 47.5" xml:space="preserve">
<g>
	<polygon fill="none" stroke="#00B0CA" stroke-miterlimit="10" points="9.552,22.575 9.552,20.72 7.311,20.72 7.311,22.355 
		7.048,22.355 7.048,22.575 7.287,22.575 7.287,22.363 9.312,22.363 9.312,22.575 	"/>
	<polygon fill="none" stroke="#00B0CA" stroke-miterlimit="10" points="18.816,5.753 22.445,5.753 21.779,3.29 22.786,2.42 
		19.754,2.42 19.364,2.42 17.509,2.42 18.816,3.657 	"/>
	<path fill="none" stroke="#00B0CA" stroke-miterlimit="10" d="M27.078,12.303c-0.004,0-0.009,0.005-0.014,0.005H12.182h-0.353
		c0.042,0.046,0.073,0.104,0.073,0.175c0,0.145-0.116,0.257-0.258,0.257h-0.432H7.771l-0.458,5.616v1.849h7.134v0.043h4.099v-0.043
		h4.423v0.043h1.943v-0.043h2.167L27.078,12.303L27.078,12.303z"/>
	<rect x="7.801" y="23.093" fill="none" stroke="#00B0CA" stroke-miterlimit="10" width="0.993" height="1.47"/>
	<rect x="25.919" y="20.936" fill="none" stroke="#00B0CA" stroke-miterlimit="10" width="0.993" height="1.424"/>
	<rect x="29.696" y="20.72" fill="none" stroke="#00B0CA" stroke-miterlimit="10" width="0.238" height="1.854"/>
	<rect x="282.739" y="20.72" fill="none" stroke="#00B0CA" stroke-miterlimit="10" width="0.235" height="1.854"/>
	<rect x="28.185" y="20.936" fill="none" stroke="#00B0CA" stroke-miterlimit="10" width="0.992" height="1.424"/>
	<polygon fill="none" stroke="#00B0CA" stroke-miterlimit="10" points="22.585,6.27 18.816,6.27 18.816,8.722 17.831,8.902 
		17.831,8.989 27.312,8.989 27.388,8.167 27.388,6.27 22.859,6.27 22.859,6.964 22.778,6.979 	"/>
	<polygon fill="none" stroke="#00B0CA" stroke-miterlimit="10" points="29.209,17.679 28.035,17.679 28.035,20.204 29.813,20.204 	
		"/>
	<rect x="1" y="23.093" fill="none" stroke="#00B0CA" stroke-miterlimit="10" width="6.286" height="1.47"/>
	<path fill="none" stroke="#00B0CA" stroke-miterlimit="10" d="M298.645,30.783c-0.019-0.242-0.125-1.366-0.947-1.659
		c-0.275-0.603-0.801-1.231-1.781-1.397l0.201-0.574h-0.514h-47.43c0.125-0.932,0.127-1.795,0-2.588h48.415h0.425l0.508-1.471
		h-0.375h-14.711v-7.991h-1.207v6.817v0.444v0.729h-33.443c-0.132-0.32-0.289-0.626-0.475-0.916
		c-1.989-3.126-6.195-3.162-6.375-3.162h-27.373c-0.055-0.097-0.094-0.202-0.153-0.296c-0.8-1.257-1.957-2.008-3.067-2.464v-0.788
		h-0.591v0.569c-1.414-0.465-2.623-0.479-2.717-0.479H62.145v7.536h-6.091v-7.626H44.833v7.626H9.312v1.47h52.833v2.588H1v3.592
		l7.154,1.26h-1.12V46.5h6.497v-0.146H299.79l1.522-4.435L298.645,30.783z M245.844,27.15h-32.486c0.351-0.91,0.6-1.771,0.771-2.588
		h31.698C246.004,25.302,246.01,26.169,245.844,27.15z M240.936,21.32c0.029,0,2.793,0.053,4.195,1.773h-30.779
		c0.05-0.627,0.023-1.213-0.049-1.773H240.936z M210.59,19.015h-0.248v-0.171C210.426,18.9,210.51,18.953,210.59,19.015z
		 M207.03,17.862c0.021,0,1.411,0.023,2.721,0.649v0.504h-14.317v-1.153H207.03z M64.45,17.862h130.394v1.153h-31.484v-0.041H152.11
		h-2.347v0.041H86.046v4.078H64.45V17.862z M152.784,24.562L152.784,24.562l0.263,1.44h-0.002L152.784,24.562z M147.994,23.093
		V21.32h1.77v1.773H147.994z M64.45,24.562h21.596v2.588H64.45V24.562z M146.785,27.15H88.35v-2.588h58.435V27.15z M88.35,23.093
		V21.32h58.435v1.773H88.35z M152.516,23.093l-0.321-1.773h42.647v1.773H152.516z M195.432,23.093V21.32h14.318v1.773H195.432z
		 M210.342,21.32h1.639c0.101,0.531,0.117,1.124,0.052,1.773h-1.69V21.32z M210.344,24.562h1.416
		c-0.201,0.801-0.502,1.666-0.902,2.588h-0.514V24.562z M208.541,27.158h-60.106V24.57h60.106V27.158z"/>
	<polygon fill="none" stroke="#00B0CA" stroke-miterlimit="10" points="299.456,19.034 285.659,19.034 285.572,18.882 
		283.932,18.945 283.932,20.704 283.932,20.704 283.932,22.863 284.501,22.863 284.501,23.075 285.743,23.075 285.743,22.863 
		286.768,22.863 286.768,23.075 288.005,23.075 288.005,22.863 289.035,22.863 289.035,23.075 290.27,23.075 290.27,22.863 
		291.297,22.863 291.297,23.075 292.536,23.075 292.536,22.863 293.561,22.863 293.561,23.075 294.801,23.075 294.801,22.863 
		295.828,22.863 295.828,23.075 297.064,23.075 297.064,22.863 298.128,22.863 298.546,21.665 298.568,20.704 298.877,20.704 	"/>
	<path fill="none" stroke="#00B0CA" stroke-miterlimit="10" d="M25.084,9.395h-0.569h-1.156h-0.568h-1.158h-0.569H19.91h-0.571
		h-1.152h-0.571H12.44v2.898h5.176h0.571h1.152h0.571h1.154h0.569h1.158h0.568h1.156h0.569h1.726V9.395H25.084z"/>
	<path fill="none" stroke="#00B0CA" stroke-miterlimit="10" d="M11.858,8.989h0.325V7.954h-0.97v4.271h0.354
		c-0.043-0.046-0.074-0.104-0.074-0.175c0-0.144,0.117-0.256,0.257-0.256h0.433V9.505h-0.325c-0.144,0-0.259-0.114-0.259-0.257
		C11.599,9.104,11.714,8.989,11.858,8.989z"/>
	<polygon fill="none" stroke="#00B0CA" stroke-miterlimit="10" points="8.167,7.842 12.074,7.842 12.152,6.519 12.395,2.468 
		12.398,2.452 10.348,3.062 6.25,4.284 6.467,7.842 	"/>
</g>
</svg>
