<?xml version="1.0" encoding="utf-8"?>
<!-- Generator: Adobe Illustrator 16.0.4, SVG Export Plug-In . SVG Version: 6.00 Build 0)  -->
<!DOCTYPE svg PUBLIC "-//W3C//DTD SVG 1.1//EN" "http://www.w3.org/Graphics/SVG/1.1/DTD/svg11.dtd">
<svg version="1.1" id="Layer_1" xmlns="http://www.w3.org/2000/svg" xmlns:xlink="http://www.w3.org/1999/xlink" x="0px" y="0px"
	 width="336px" height="52.5px" viewBox="-440.316 -78.973 336 52.5" enable-background="new -440.316 -78.973 336 52.5"
	 xml:space="preserve">
<g>
	<polygon fill="none" stroke="#00B0CA" stroke-miterlimit="10" points="-429.818,-57.365 -429.818,-59.22 -432.059,-59.22 
		-432.059,-57.585 -432.322,-57.585 -432.322,-57.365 -432.083,-57.365 -432.083,-57.577 -430.058,-57.577 -430.058,-57.365 	"/>
	<polygon fill="none" stroke="#00B0CA" stroke-miterlimit="10" points="-420.554,-74.187 -416.925,-74.187 -417.591,-76.65 
		-416.584,-77.52 -419.616,-77.52 -420.006,-77.52 -421.861,-77.52 -420.554,-76.283 	"/>
	<path fill="none" stroke="#00B0CA" stroke-miterlimit="10" d="M-412.292-67.637c-0.004,0-0.009,0.005-0.014,0.005h-14.882h-0.353
		c0.042,0.046,0.073,0.104,0.073,0.175c0,0.145-0.116,0.257-0.258,0.257h-0.432h-3.441l-0.458,5.616v1.849h7.134v0.043h4.099v-0.043
		h4.423v0.043h1.943v-0.043h2.167V-67.637z"/>
	<rect x="-431.569" y="-56.847" fill="none" stroke="#00B0CA" stroke-miterlimit="10" width="0.993" height="1.47"/>
	<rect x="-413.451" y="-59.004" fill="none" stroke="#00B0CA" stroke-miterlimit="10" width="0.993" height="1.424"/>
	<rect x="-409.674" y="-59.22" fill="none" stroke="#00B0CA" stroke-miterlimit="10" width="0.238" height="1.855"/>
	<rect x="-124.632" y="-59.22" fill="none" stroke="#00B0CA" stroke-miterlimit="10" width="0.235" height="1.855"/>
	<rect x="-411.185" y="-59.004" fill="none" stroke="#00B0CA" stroke-miterlimit="10" width="0.992" height="1.424"/>
	<polygon fill="none" stroke="#00B0CA" stroke-miterlimit="10" points="-416.785,-73.67 -420.554,-73.67 -420.554,-71.218 
		-421.539,-71.038 -421.539,-70.951 -412.058,-70.951 -411.982,-71.773 -411.982,-73.67 -416.511,-73.67 -416.511,-72.976 
		-416.592,-72.961 	"/>
	<polygon fill="none" stroke="#00B0CA" stroke-miterlimit="10" points="-410.161,-62.261 -411.335,-62.261 -411.335,-59.736 
		-409.557,-59.736 	"/>
	<rect x="-438.37" y="-56.847" fill="none" stroke="#00B0CA" stroke-miterlimit="10" width="6.286" height="1.47"/>
	<path fill="none" stroke="#00B0CA" stroke-miterlimit="10" d="M-108.727-49.156c-0.018-0.243-0.125-1.367-0.947-1.66
		c-0.275-0.602-0.801-1.232-1.781-1.398l0.201-0.574h-0.513h-54.098c0.126-0.931,0.128-1.794,0.001-2.588h55.081h0.424l0.508-1.47
		h-0.375h-14.71l-1.333-7.991h-1.208l1.333,6.817v0.444v0.729h-40.109c-0.132-0.32-0.289-0.626-0.474-0.916
		c-1.99-3.126-6.196-3.162-6.375-3.162h-35.375c-0.054-0.097-0.094-0.202-0.153-0.296c-0.8-1.257-1.957-2.008-3.067-2.464v-0.788
		h-0.591v0.569c-1.414-0.465-2.623-0.479-2.717-0.479h-162.221v7.536h-6.091v-7.626h-11.221v7.626h-35.521v1.47h52.833v2.588
		h-61.145v3.591l7.154,1.26h-1.12v19.498h6.497v-0.146h319.258l1.523-6.435L-108.727-49.156z M-168.194-52.789h-40.487
		c0.35-0.911,0.599-1.771,0.771-2.588h39.698C-168.034-54.638-168.029-53.771-168.194-52.789z M-173.101-58.62
		c0.029,0,2.793,0.053,4.195,1.773h-38.781c0.05-0.627,0.024-1.213-0.048-1.773H-173.101z M-211.448-60.925h-0.248v-0.171
		C-211.612-61.04-211.529-60.987-211.448-60.925z M-215.008-62.078c0.021,0,1.411,0.023,2.721,0.649v0.504h-14.318v-1.153H-215.008z
		 M-374.92-62.078h147.725v1.153h-38.151v-0.041h-11.249h-2.346v0.041h-63.718v4.078h-32.261V-62.078z M-275.92-55.377
		L-275.92-55.377l0.263,1.44h-0.002L-275.92-55.377z M-280.71-56.847v-1.773h1.769v1.773H-280.71z M-374.92-55.377h32.261v2.588
		h-32.261V-55.377z M-281.919-52.789h-58.435v-2.588h58.435V-52.789z M-340.354-56.847v-1.773h58.435v1.773H-340.354z
		 M-276.188-56.847l-0.322-1.773h49.314v1.773H-276.188z M-226.605-56.847v-1.773h14.318v1.773H-226.605z M-211.696-58.62h1.638
		c0.101,0.531,0.118,1.124,0.052,1.773h-1.69V-58.62z M-211.694-55.377h1.416c-0.201,0.8-0.503,1.665-0.903,2.588h-0.513V-55.377z
		 M-213.497-52.782h-66.773v-2.588h66.773V-52.782z"/>
	<polygon fill="none" stroke="#00B0CA" stroke-miterlimit="10" points="-107.915,-60.906 -121.712,-60.906 -121.799,-61.058 
		-123.439,-60.995 -123.439,-59.236 -123.438,-59.236 -123.438,-57.077 -122.87,-57.077 -122.87,-56.865 -121.628,-56.865 
		-121.628,-57.077 -120.603,-57.077 -120.603,-56.865 -119.366,-56.865 -119.366,-57.077 -118.336,-57.077 -118.336,-56.865 
		-117.102,-56.865 -117.102,-57.077 -116.074,-57.077 -116.074,-56.865 -114.835,-56.865 -114.835,-57.077 -113.81,-57.077 
		-113.81,-56.865 -112.571,-56.865 -112.571,-57.077 -111.543,-57.077 -111.543,-56.865 -110.306,-56.865 -110.306,-57.077 
		-109.243,-57.077 -108.825,-58.275 -108.803,-59.236 -108.494,-59.236 	"/>
	<path fill="none" stroke="#00B0CA" stroke-miterlimit="10" d="M-414.286-70.545h-0.569h-1.156h-0.568h-1.158h-0.569h-1.154h-0.571
		h-1.152h-0.571h-5.176v2.898h5.176h0.571h1.152h0.571h1.154h0.569h1.158h0.568h1.156h0.569h1.726v-2.898H-414.286z"/>
	<path fill="none" stroke="#00B0CA" stroke-miterlimit="10" d="M-427.512-70.951h0.325v-1.035h-0.97v4.271h0.354
		c-0.043-0.046-0.074-0.104-0.074-0.175c0-0.144,0.117-0.256,0.257-0.256h0.433v-2.289h-0.325c-0.144,0-0.259-0.114-0.259-0.257
		C-427.771-70.836-427.656-70.951-427.512-70.951z"/>
	<polygon fill="none" stroke="#00B0CA" stroke-miterlimit="10" points="-431.203,-72.098 -427.296,-72.098 -427.218,-73.421 
		-426.975,-77.472 -426.972,-77.488 -429.022,-76.878 -433.12,-75.656 -432.903,-72.098 	"/>
</g>
</svg>
